{
	"asset":{
		"generator":"Khronos glTF Blender I/O v3.6.27",
		"version":"2.0"
	},
	"scene":0,
	"scenes":[
		{
			"name":"Scene",
			"nodes":[
				1
			]
		}
	],
	"nodes":[
		{
			"mesh":0,
			"name":"geometry_0"
		},
		{
			"children":[
				0
			],
			"name":"world"
		}
	],
	"materials":[
		{
			"name":"Material_0",
			"pbrMetallicRoughness":{
				"baseColorTexture":{
					"index":0
				}
			}
		}
	],
	"meshes":[
		{
			"name":"geometry_0",
			"primitives":[
				{
					"attributes":{
						"POSITION":0,
						"NORMAL":1,
						"TEXCOORD_0":2
					},
					"indices":3,
					"material":0
				}
			]
		}
	],
	"textures":[
		{
			"sampler":0,
			"source":0
		}
	],
	"images":[
		{
			"mimeType":"image/png",
			"name":"Image_0",
			"uri":"Image_0.png"
		}
	],
	"accessors":[
		{
			"bufferView":0,
			"componentType":5126,
			"count":20782,
			"max":[
				0.2724173963069916,
				0.49058496952056885,
				0.2443053126335144
			],
			"min":[
				-0.2751668095588684,
				-0.5003635883331299,
				-0.24047094583511353
			],
			"type":"VEC3"
		},
		{
			"bufferView":1,
			"componentType":5126,
			"count":20782,
			"type":"VEC3"
		},
		{
			"bufferView":2,
			"componentType":5126,
			"count":20782,
			"type":"VEC2"
		},
		{
			"bufferView":3,
			"componentType":5123,
			"count":20784,
			"type":"SCALAR"
		}
	],
	"bufferViews":[
		{
			"buffer":0,
			"byteLength":249384,
			"byteOffset":0,
			"target":34962
		},
		{
			"buffer":0,
			"byteLength":249384,
			"byteOffset":249384,
			"target":34962
		},
		{
			"buffer":0,
			"byteLength":166256,
			"byteOffset":498768,
			"target":34962
		},
		{
			"buffer":0,
			"byteLength":41568,
			"byteOffset":665024,
			"target":34963
		}
	],
	"samplers":[
		{
			"magFilter":9729,
			"minFilter":9987
		}
	],
	"buffers":[
		{
			"byteLength":706592,
			"uri":"sleep.bin"
		}
	]
}
