{
	"asset":{
		"generator":"Khronos glTF Blender I/O v3.6.27",
		"version":"2.0"
	},
	"scene":0,
	"scenes":[
		{
			"name":"Scene",
			"nodes":[
				1
			]
		}
	],
	"nodes":[
		{
			"mesh":0,
			"name":"geometry_0"
		},
		{
			"children":[
				0
			],
			"name":"world"
		}
	],
	"materials":[
		{
			"name":"Material_0",
			"pbrMetallicRoughness":{
				"baseColorTexture":{
					"index":0
				}
			}
		}
	],
	"meshes":[
		{
			"name":"geometry_0",
			"primitives":[
				{
					"attributes":{
						"POSITION":0,
						"NORMAL":1,
						"TEXCOORD_0":2
					},
					"indices":3,
					"material":0
				}
			]
		}
	],
	"textures":[
		{
			"sampler":0,
			"source":0
		}
	],
	"images":[
		{
			"mimeType":"image/png",
			"name":"Image_0",
			"uri":"Image_0.png"
		}
	],
	"accessors":[
		{
			"bufferView":0,
			"componentType":5126,
			"count":37144,
			"max":[
				0.2927248179912567,
				0.5002175569534302,
				0.23367485404014587
			],
			"min":[
				-0.35793057084083557,
				-0.4976252615451813,
				-0.21429602801799774
			],
			"type":"VEC3"
		},
		{
			"bufferView":1,
			"componentType":5126,
			"count":37144,
			"type":"VEC3"
		},
		{
			"bufferView":2,
			"componentType":5126,
			"count":37144,
			"type":"VEC2"
		},
		{
			"bufferView":3,
			"componentType":5123,
			"count":37188,
			"type":"SCALAR"
		}
	],
	"bufferViews":[
		{
			"buffer":0,
			"byteLength":445728,
			"byteOffset":0,
			"target":34962
		},
		{
			"buffer":0,
			"byteLength":445728,
			"byteOffset":445728,
			"target":34962
		},
		{
			"buffer":0,
			"byteLength":297152,
			"byteOffset":891456,
			"target":34962
		},
		{
			"buffer":0,
			"byteLength":74376,
			"byteOffset":1188608,
			"target":34963
		}
	],
	"samplers":[
		{
			"magFilter":9729,
			"minFilter":9987
		}
	],
	"buffers":[
		{
			"byteLength":1262984,
			"uri":"untitled.bin"
		}
	]
}
