{
	"asset":{
		"generator":"Khronos glTF Blender I/O v3.6.27",
		"version":"2.0"
	},
	"scene":0,
	"scenes":[
		{
			"name":"Scene",
			"nodes":[
				1
			]
		}
	],
	"nodes":[
		{
			"mesh":0,
			"name":"geometry_0"
		},
		{
			"children":[
				0
			],
			"name":"world"
		}
	],
	"materials":[
		{
			"name":"Material_0",
			"pbrMetallicRoughness":{
				"baseColorTexture":{
					"index":0
				}
			}
		}
	],
	"meshes":[
		{
			"name":"geometry_0",
			"primitives":[
				{
					"attributes":{
						"POSITION":0,
						"NORMAL":1,
						"TEXCOORD_0":2
					},
					"indices":3,
					"material":0
				}
			]
		}
	],
	"textures":[
		{
			"sampler":0,
			"source":0
		}
	],
	"images":[
		{
			"mimeType":"image/png",
			"name":"Image_0",
			"uri":"Image_0.png"
		}
	],
	"accessors":[
		{
			"bufferView":0,
			"componentType":5126,
			"count":11806,
			"max":[
				0.437313973903656,
				0.11652126163244247,
				0.49895450472831726
			],
			"min":[
				-0.4336791932582855,
				-0.11894737929105759,
				-0.5242148637771606
			],
			"type":"VEC3"
		},
		{
			"bufferView":1,
			"componentType":5126,
			"count":11806,
			"type":"VEC3"
		},
		{
			"bufferView":2,
			"componentType":5126,
			"count":11806,
			"type":"VEC2"
		},
		{
			"bufferView":3,
			"componentType":5123,
			"count":11808,
			"type":"SCALAR"
		}
	],
	"bufferViews":[
		{
			"buffer":0,
			"byteLength":141672,
			"byteOffset":0,
			"target":34962
		},
		{
			"buffer":0,
			"byteLength":141672,
			"byteOffset":141672,
			"target":34962
		},
		{
			"buffer":0,
			"byteLength":94448,
			"byteOffset":283344,
			"target":34962
		},
		{
			"buffer":0,
			"byteLength":23616,
			"byteOffset":377792,
			"target":34963
		}
	],
	"samplers":[
		{
			"magFilter":9729,
			"minFilter":9987
		}
	],
	"buffers":[
		{
			"byteLength":401408,
			"uri":"body1.bin"
		}
	]
}
