{
    "asset": {
        "version": "2.0",
        "generator": "Open Asset Import Library (assimp v5.4.0)"
    },
    "extensionsUsed": [
        "KHR_materials_volume",
        "FB_ngon_encoding"
    ],
    "accessors": [
        {
            "bufferView": 0,
            "byteOffset": 0,
            "componentType": 5126,
            "count": 16659,
            "type": "VEC3",
            "max": [
                0.39325153827667236,
                0.43558287620544434,
                0.4997680187225342
            ],
            "min": [
                -0.3847877085208893,
                -0.4364304840564728,
                -0.49932318925857544
            ]
        },
        {
            "bufferView": 1,
            "byteOffset": 0,
            "componentType": 5126,
            "count": 16659,
            "type": "VEC3",
            "max": [
                0.9999996423721313,
                0.9996421337127686,
                0.9999828934669495
            ],
            "min": [
                -0.9999942779541016,
                -0.9995900988578796,
                -0.9999040961265564
            ]
        },
        {
            "bufferView": 2,
            "byteOffset": 0,
            "componentType": 5126,
            "count": 16659,
            "type": "VEC2",
            "max": [
                0.9995802044868469,
                0.9995815753936768
            ],
            "min": [
                0.0004198152746539563,
                0.0004184246063232422
            ]
        },
        {
            "bufferView": 3,
            "byteOffset": 0,
            "componentType": 5125,
            "count": 82656,
            "type": "SCALAR",
            "max": [
                16658
            ],
            "min": [
                0
            ]
        }
    ],
    "buffers": [
        {
            "byteLength": 863712,
            "uri": "sample(1)_0.bin"
        }
    ],
    "bufferViews": [
        {
            "buffer": 0,
            "byteOffset": 0,
            "byteLength": 199908,
            "target": 34962
        },
        {
            "buffer": 0,
            "byteOffset": 199908,
            "byteLength": 199908,
            "target": 34962
        },
        {
            "buffer": 0,
            "byteOffset": 399816,
            "byteLength": 133272,
            "target": 34962
        },
        {
            "buffer": 0,
            "byteOffset": 533088,
            "byteLength": 330624,
            "target": 34963
        }
    ],
    "images": [
        {
            "uri": "textures/image_0.png"
        }
    ],
    "materials": [
        {
            "name": "Mat_1",
            "pbrMetallicRoughness": {
                "baseColorTexture": {
                    "index": 0
                },
                "metallicFactor": 0.800000011920929
            }
        }
    ],
    "meshes": [
        {
            "name": "meshes[0]",
            "primitives": [
                {
                    "mode": 4,
                    "material": 0,
                    "indices": 3,
                    "attributes": {
                        "POSITION": 0,
                        "NORMAL": 1,
                        "TEXCOORD_0": 2
                    }
                }
            ]
        }
    ],
    "nodes": [
        {
            "name": "sample(1)",
            "children": [
                1
            ]
        },
        {
            "name": "world",
            "children": [
                2
            ],
            "extras": {
                "name": "world"
            }
        },
        {
            "name": "geometry_0",
            "mesh": 0,
            "extras": {
                "processed": true,
                "name": "geometry_0"
            }
        }
    ],
    "samplers": [
        {
            "magFilter": 9729,
            "minFilter": 9987
        }
    ],
    "scenes": [
        {
            "nodes": [
                0
            ]
        }
    ],
    "textures": [
        {
            "source": 0,
            "sampler": 0
        }
    ],
    "scene": 0
}