{
	"asset":{
		"generator":"Khronos glTF Blender I/O v3.6.27",
		"version":"2.0"
	},
	"scene":0,
	"scenes":[
		{
			"name":"Scene",
			"nodes":[
				1
			]
		}
	],
	"nodes":[
		{
			"mesh":0,
			"name":"geometry_0"
		},
		{
			"children":[
				0
			],
			"name":"world"
		}
	],
	"materials":[
		{
			"name":"Material_0",
			"pbrMetallicRoughness":{
				"baseColorTexture":{
					"index":0
				}
			}
		}
	],
	"meshes":[
		{
			"name":"geometry_0",
			"primitives":[
				{
					"attributes":{
						"POSITION":0,
						"NORMAL":1,
						"TEXCOORD_0":2
					},
					"indices":3,
					"material":0
				}
			]
		}
	],
	"textures":[
		{
			"sampler":0,
			"source":0
		}
	],
	"images":[
		{
			"mimeType":"image/png",
			"name":"Image_0",
			"uri":"Image_0.png"
		}
	],
	"accessors":[
		{
			"bufferView":0,
			"componentType":5126,
			"count":66659,
			"max":[
				0.49061068892478943,
				0.4917375147342682,
				0.11487770825624466
			],
			"min":[
				-0.48815155029296875,
				-0.4866880476474762,
				-0.12571865320205688
			],
			"type":"VEC3"
		},
		{
			"bufferView":1,
			"componentType":5126,
			"count":66659,
			"type":"VEC3"
		},
		{
			"bufferView":2,
			"componentType":5126,
			"count":66659,
			"type":"VEC2"
		},
		{
			"bufferView":3,
			"componentType":5125,
			"count":66777,
			"type":"SCALAR"
		}
	],
	"bufferViews":[
		{
			"buffer":0,
			"byteLength":799908,
			"byteOffset":0,
			"target":34962
		},
		{
			"buffer":0,
			"byteLength":799908,
			"byteOffset":799908,
			"target":34962
		},
		{
			"buffer":0,
			"byteLength":533272,
			"byteOffset":1599816,
			"target":34962
		},
		{
			"buffer":0,
			"byteLength":267108,
			"byteOffset":2133088,
			"target":34963
		}
	],
	"samplers":[
		{
			"magFilter":9729,
			"minFilter":9987
		}
	],
	"buffers":[
		{
			"byteLength":2400196,
			"uri":"smiley.bin"
		}
	]
}
